<svg id="svg" xmlns="http://www.w3.org/2000/svg" xmlns:xlink="http://www.w3.org/1999/xlink" width="400" height="16.91842900302115" viewBox="0, 0, 400,16.91842900302115"><g id="svgg"><path id="path0" d="M3.167 0.323 C 3.167 0.577,3.031 0.658,2.542 0.698 C 1.974 0.745,1.912 0.799,1.865 1.282 C 1.820 1.745,1.745 1.820,1.282 1.865 C 0.816 1.910,0.743 1.984,0.698 2.458 C 0.659 2.865,0.565 3.000,0.323 3.000 C 0.010 3.000,0.000 3.170,0.000 8.417 C 0.000 13.663,0.010 13.833,0.323 13.833 C 0.565 13.833,0.659 13.968,0.698 14.375 C 0.743 14.849,0.816 14.923,1.282 14.968 C 1.745 15.013,1.820 15.088,1.865 15.551 C 1.912 16.035,1.974 16.088,2.542 16.135 C 3.031 16.176,3.167 16.257,3.167 16.510 C 3.167 16.829,3.701 16.833,43.917 16.833 L 84.667 16.833 84.667 8.417 L 84.667 0.000 43.917 0.000 C 3.701 0.000,3.167 0.004,3.167 0.323 " stroke="none" fill="#fc2b04" fill-rule="evenodd"></path><path id="path1" d="M346.833 8.417 L 346.833 16.833 371.917 16.833 C 396.889 16.833,397.000 16.832,397.000 16.500 C 397.000 16.230,397.111 16.167,397.583 16.167 C 398.139 16.167,398.167 16.139,398.167 15.583 C 398.167 15.028,398.194 15.000,398.750 15.000 C 399.306 15.000,399.333 14.972,399.333 14.417 C 399.333 13.944,399.397 13.833,399.667 13.833 C 399.993 13.833,400.000 13.722,400.000 8.417 C 400.000 3.170,399.990 3.000,399.677 3.000 C 399.435 3.000,399.341 2.865,399.302 2.458 C 399.257 1.984,399.184 1.910,398.718 1.865 C 398.255 1.820,398.180 1.745,398.135 1.282 C 398.090 0.816,398.016 0.743,397.542 0.698 C 397.135 0.659,397.000 0.565,397.000 0.323 C 397.000 0.005,396.615 0.000,371.917 0.000 L 346.833 0.000 346.833 8.417 " stroke="none" fill="#4dd024" fill-rule="evenodd"></path><path id="path2" d="M84.667 8.417 L 84.667 16.833 132.083 16.833 L 179.500 16.833 179.500 8.417 L 179.500 0.000 132.083 0.000 L 84.667 0.000 84.667 8.417 " stroke="none" fill="#fc7d04" fill-rule="evenodd"></path><path id="path3" d="M179.500 8.417 L 179.500 16.833 243.833 16.833 L 308.167 16.833 308.167 8.417 L 308.167 0.000 243.833 0.000 L 179.500 0.000 179.500 8.417 " stroke="none" fill="#f7ef04" fill-rule="evenodd"></path><path id="path4" d="M308.167 8.417 L 308.167 16.833 327.500 16.833 L 346.833 16.833 346.833 8.417 L 346.833 0.000 327.500 0.000 L 308.167 0.000 308.167 8.417 " stroke="none" fill="#a2eb12" fill-rule="evenodd"></path></g></svg>