<?xml version="1.0" standalone="no"?><!DOCTYPE svg PUBLIC "-//W3C//DTD SVG 1.1//EN" "http://www.w3.org/Graphics/SVG/1.1/DTD/svg11.dtd"><svg class="icon" height="512" viewBox="0 0 1024 1024" version="1.1" xmlns="http://www.w3.org/2000/svg"><path d="M667.306667 776.533333c-11.946667 1.706667-20.48-6.826667-25.6-15.36 0 0-3.413333-3.413333-5.12-6.826666-3.413333-1.706667-20.48-32.426667-126.293334-32.426667-100.693333 0-128 39.253333-128 39.253333-6.826667 11.946667-23.893333 15.36-35.84 8.533334-1.706667-1.706667-3.413333-1.706667-3.413333-3.413334-8.533333-8.533333-11.946667-20.48-5.12-30.72 3.413333-6.826667 40.96-64.853333 172.373333-64.853333 146.773333 0 175.786667 63.146667 179.2 69.973333 5.12 13.653333 0 29.013333-13.653333 32.426667-3.413333 3.413333-5.12 3.413333-8.533333 3.413333zM675.84 348.16c35.84 0 66.56 29.013333 66.56 66.56 0 35.84-29.013333 66.56-66.56 66.56-35.84 0-66.56-29.013333-66.56-66.56 1.706667-37.546667 30.72-66.56 66.56-66.56zM348.16 348.16c35.84 0 66.56 29.013333 66.56 66.56 0 35.84-29.013333 66.56-66.56 66.56s-66.56-29.013333-66.56-66.56 29.013333-66.56 66.56-66.56z" fill="#BE8556" /><path d="M512 972.8C257.706667 972.8 51.2 766.293333 51.2 512S257.706667 51.2 512 51.2s460.8 206.506667 460.8 460.8-206.506667 460.8-460.8 460.8z m0-870.4C286.72 102.4 102.4 286.72 102.4 512s184.32 409.6 409.6 409.6 409.6-184.32 409.6-409.6S737.28 102.4 512 102.4z" fill="#BE8556" /></svg>